<?xml version="1.0" encoding="UTF-8" standalone="no"?>
<!-- Created with Inkscape (http://www.inkscape.org/) -->

<svg
   width="2000"
   height="1024"
   viewBox="0 0 529.16665 270.93333"
   version="1.1"
   id="svg5"
   inkscape:version="1.2.1 (9c6d41e410, 2022-07-14)"
   sodipodi:docname="books.svg"
   inkscape:export-filename="Континуум, товарный знак белый.png"
   inkscape:export-xdpi="192"
   inkscape:export-ydpi="192"
   xmlns:inkscape="http://www.inkscape.org/namespaces/inkscape"
   xmlns:sodipodi="http://sodipodi.sourceforge.net/DTD/sodipodi-0.dtd"
   xmlns="http://www.w3.org/2000/svg"
   xmlns:svg="http://www.w3.org/2000/svg">
  <sodipodi:namedview
     id="namedview7"
     pagecolor="#ffffff"
     bordercolor="#000000"
     borderopacity="0.25"
     inkscape:showpageshadow="2"
     inkscape:pageopacity="0.0"
     inkscape:pagecheckerboard="0"
     inkscape:deskcolor="#d1d1d1"
     inkscape:document-units="mm"
     showgrid="true"
     showguides="true"
     inkscape:zoom="0.19531951"
     inkscape:cx="1909.6915"
     inkscape:cy="906.20748"
     inkscape:window-width="1858"
     inkscape:window-height="1057"
     inkscape:window-x="-8"
     inkscape:window-y="-8"
     inkscape:window-maximized="1"
     inkscape:current-layer="layer1">
    <sodipodi:guide
       position="529.16668,135.46667"
       orientation="1,0"
       id="guide11"
       inkscape:locked="false" />
    <sodipodi:guide
       position="423.33332,169.33333"
       orientation="0,-1"
       id="guide65"
       inkscape:locked="false" />
  </sodipodi:namedview>
  <defs
     id="defs2">
    <rect
       x="0"
       y="0"
       width="3200"
       height="1024"
       id="rect121" />
    <pattern
       id="EMFhbasepattern"
       patternUnits="userSpaceOnUse"
       width="6"
       height="6"
       x="0"
       y="0" />
  </defs>
  <g
     inkscape:label="Слой 1"
     inkscape:groupmode="layer"
     id="layer1">
    <g
       id="g296"
       transform="matrix(1.9012456,0,0,1.9012456,-2208.5269,-816.62725)"
       style="fill:#ffffff;fill-opacity:1">
      <g
         aria-label="КНИГИ"
         transform="matrix(0.26458333,0,0,0.26458333,877.45085,459.726)"
         id="text119"
         style="font-size:266.667px;font-family:Colus;-inkscape-font-specification:Colus;text-align:center;white-space:pre;shape-inside:url(#rect121);display:inline">
        <path
           d="m 1191.8661,193.65361 q 0,15.20002 3.7333,25.33337 4,9.86668 9.3333,13.86668 v 0.53333 h -64 v -0.53333 q 5.8666,-4 10.1333,-14.13335 4.2667,-10.13335 4.2667,-25.33336 V 86.986816 q 0,-14.666685 -4.2667,-24.533364 -4.2667,-10.133345 -10.1333,-13.866683 v -0.533334 h 64 v 0.533334 q -5.3333,4.000005 -9.3333,14.13335 -3.7333,10.133346 -3.7333,25.333365 z m 93.8667,9.60001 q 6.9334,10.13335 13.3334,16.00002 6.6667,5.60001 16.2667,9.60002 v 0.53333 l -53.6001,9.06668 q -2.6667,-9.86668 -13.0667,-25.33337 l -53.8667,-80.00009 45.0667,-63.733416 q 9.3334,-13.33335 8.8,-21.333359 h 55.4668 v 0.533334 q -15.2001,7.200008 -31.4667,29.600036 l -37.6001,50.933395 z"
           id="path443" />
        <path
           d="m 1495.0665,48.586769 q -5.8667,4.000005 -10.1333,14.13335 -4.2667,10.133346 -4.2667,25.333365 V 194.45361 q 0,14.66669 4.2667,24.80003 4.2666,9.86668 10.1333,13.60002 v 0.53333 h -64.5334 v -0.53333 q 5.3333,-4 9.3333,-13.86668 4.2667,-10.13335 4.2667,-24.53337 v -46.66672 h -70.9334 v 45.60006 q 0,15.20001 4,25.33336 4,10.13335 9.6,14.13335 v 0.53333 h -64.5334 v -0.53333 q 5.8667,-4 10.1333,-14.13335 4.2667,-10.13335 4.2667,-25.33336 V 88.053484 q 0,-15.466686 -4.2667,-25.333365 -4.2666,-10.133345 -10.1333,-14.13335 v -0.533334 h 64.5334 v 0.533334 q -5.3333,4.000005 -9.6,14.400017 -4,10.133346 -4,25.066698 v 33.066706 h 70.9334 V 88.053484 q 0,-15.200019 -4,-25.333365 -4,-10.133345 -9.6,-14.13335 v -0.533334 h 64.5334 z"
           id="path445" />
        <path
           d="m 1527.3334,233.38699 v -0.53333 q 5.3334,-4 9.3334,-14.13335 4.2666,-10.40001 4.2666,-25.33336 V 88.053484 q 0,-15.466686 -4.2666,-25.333365 -4.2667,-10.133345 -10.1334,-14.13335 v -0.533334 h 65.0668 v 0.533334 q -5.3334,4.000005 -9.6,14.400017 -4.2667,10.133346 -4.2667,25.066698 v 46.933386 q 0,23.4667 -5.8667,56.00007 h 1.0667 q 8.8,-25.06669 25.8667,-53.60006 l 38.4,-63.733414 q 10.1334,-16.800021 10.9334,-25.600031 h 58.9334 v 0.533334 q -5.0667,2.66667 -10.4,14.400017 -5.3334,11.733348 -5.3334,23.733363 V 193.38695 q 0,15.46668 4.2667,25.60003 4.2667,9.86668 10.1334,13.86668 v 0.53333 h -65.6001 v -0.53333 q 5.8666,-4 10.1333,-14.13335 4.2667,-10.13335 4.2667,-25.33336 v -48.00006 q 0,-26.6667 7.4667,-59.200075 h -1.0667 q -10.6667,30.400035 -26.9334,56.800065 l -40.2667,65.06675 q -8.5333,13.86668 -13.3333,25.33336 z"
           id="path447" />
        <path
           d="m 1738.5337,233.38699 v -0.53333 q 5.8667,-3.73334 10.4,-14.93335 4.5333,-11.46668 4.5333,-25.8667 V 86.986816 q 0,-14.666685 -4.2666,-24.533364 -4.2667,-10.133345 -10.1334,-13.866683 v -0.533334 h 78.4001 q 29.0667,0 39.2001,-1.866669 l 4.5333,47.733391 -0.5333,0.266667 q -9.6001,-19.733357 -41.8668,-19.733357 h -28.8 V 193.12028 q 0,14.40002 4.5333,25.33336 4.8001,10.93335 11.7334,14.40002 v 0.53333 z"
           id="path449" />
        <path
           d="m 1879.3337,233.38699 v -0.53333 q 5.3334,-4 9.3334,-14.13335 4.2667,-10.40001 4.2667,-25.33336 V 88.053484 q 0,-15.466686 -4.2667,-25.333365 -4.2667,-10.133345 -10.1334,-14.13335 v -0.533334 h 65.0668 v 0.533334 q -5.3334,4.000005 -9.6,14.400017 -4.2667,10.133346 -4.2667,25.066698 v 46.933386 q 0,23.4667 -5.8667,56.00007 h 1.0667 q 8.8,-25.06669 25.8667,-53.60006 l 38.4,-63.733414 q 10.1334,-16.800021 10.9334,-25.600031 h 58.9334 v 0.533334 q -5.0667,2.66667 -10.4,14.400017 -5.3334,11.733348 -5.3334,23.733363 V 193.38695 q 0,15.46668 4.2667,25.60003 4.2667,9.86668 10.1334,13.86668 v 0.53333 h -65.6001 v -0.53333 q 5.8666,-4 10.1333,-14.13335 4.2667,-10.13335 4.2667,-25.33336 v -48.00006 q 0,-26.6667 7.4667,-59.200075 h -1.0667 q -10.6667,30.400035 -26.9334,56.800065 l -40.2667,65.06675 q -8.5333,13.86668 -13.3333,25.33336 z"
           id="path451" />
      </g>
    </g>
  </g>
</svg>
