<?xml version="1.0" encoding="UTF-8" standalone="no"?>
<!-- Created with Inkscape (http://www.inkscape.org/) -->

<svg
   width="1024"
   height="1024"
   viewBox="0 0 270.93333 270.93333"
   version="1.1"
   id="svg5"
   inkscape:version="1.2.1 (9c6d41e410, 2022-07-14)"
   sodipodi:docname="arrow_down.svg"
   inkscape:export-filename="Континуум, товарный знак белый.png"
   inkscape:export-xdpi="192"
   inkscape:export-ydpi="192"
   xml:space="preserve"
   xmlns:inkscape="http://www.inkscape.org/namespaces/inkscape"
   xmlns:sodipodi="http://sodipodi.sourceforge.net/DTD/sodipodi-0.dtd"
   xmlns="http://www.w3.org/2000/svg"
   xmlns:svg="http://www.w3.org/2000/svg"><sodipodi:namedview
     id="namedview7"
     pagecolor="#ffffff"
     bordercolor="#000000"
     borderopacity="0.25"
     inkscape:showpageshadow="2"
     inkscape:pageopacity="0.0"
     inkscape:pagecheckerboard="0"
     inkscape:deskcolor="#d1d1d1"
     inkscape:document-units="mm"
     showgrid="true"
     showguides="true"
     inkscape:zoom="0.19531951"
     inkscape:cx="1953.2099"
     inkscape:cy="1100.7605"
     inkscape:window-width="1920"
     inkscape:window-height="1057"
     inkscape:window-x="-8"
     inkscape:window-y="-8"
     inkscape:window-maximized="1"
     inkscape:current-layer="layer1"><sodipodi:guide
       position="529.16669,135.46667"
       orientation="1,0"
       id="guide11"
       inkscape:locked="false" /><sodipodi:guide
       position="423.33332,135.46667"
       orientation="0,-1"
       id="guide63"
       inkscape:locked="false" /><sodipodi:guide
       position="423.33332,169.33333"
       orientation="0,-1"
       id="guide65"
       inkscape:locked="false" /><sodipodi:guide
       position="2645.8333,0"
       orientation="1,0"
       id="guide5913"
       inkscape:locked="false" /></sodipodi:namedview><defs
     id="defs2"><rect
       x="0.47219524"
       y="0.47219524"
       width="9794.7354"
       height="1074.2539"
       id="rect1264" /><rect
       x="0"
       y="0"
       width="5628.9731"
       height="361.5528"
       id="rect121" /><pattern
       id="EMFhbasepattern"
       patternUnits="userSpaceOnUse"
       width="6"
       height="6"
       x="0"
       y="0" /></defs><g
     inkscape:label="Слой 1"
     inkscape:groupmode="layer"
     id="layer1"><path
       style="fill:#ffffff;stroke-width:0.367247;fill-opacity:1"
       d="m 131.48249,180.31912 c -1.06089,-0.36651 -2.21773,-0.91444 -2.57073,-1.21764 -0.353,-0.30322 -3.69917,-3.17251 -7.43592,-6.37622 -3.73674,-3.20371 -11.09088,-9.55327 -16.34252,-14.11012 C 91.328588,146.6368 81.670999,138.27277 65.470541,124.26492 48.449123,109.54723 47.57482,108.71982 46.494105,106.30614 c -1.179987,-2.63538 -1.178543,-7.040276 0.0028,-9.446443 2.67958,-5.45646 8.409273,-8.082129 14.041998,-6.434864 2.415244,0.706324 3.48394,1.54444 17.634522,13.829807 5.93265,5.15065 13.268714,11.51923 16.302364,14.15239 3.033665,2.63317 11.052011,9.56557 17.818541,15.40534 6.76655,5.83978 14.73777,12.74595 17.71385,15.34706 l 5.41103,4.72928 5.05554,-4.39787 c 2.7807,-2.41884 12.07931,-10.47105 20.66372,-17.89382 8.58443,-7.42276 19.07854,-16.51053 23.32024,-20.19505 21.56008,-18.727914 23.09773,-19.999677 25.07846,-20.742131 4.89188,-1.833662 10.72455,-0.06538 13.58041,4.117281 2.49958,3.660802 2.88928,7.84965 1.09488,11.76911 -0.98544,2.1525 -2.83753,3.93928 -14.56449,14.05095 -3.51381,3.02979 -14.00671,12.11084 -23.31758,20.18012 -9.31086,8.06927 -19.32513,16.73945 -22.25393,19.26708 -2.9288,2.52762 -8.38243,7.25219 -12.11918,10.49906 -3.73676,3.24685 -7.74209,6.675 -8.90076,7.61811 -3.41262,2.77773 -7.54771,3.54855 -11.57418,2.15757 z"
       id="path322" /></g></svg>
