<?xml version="1.0" encoding="UTF-8" standalone="no"?>
<!-- Created with Inkscape (http://www.inkscape.org/) -->

<svg
   width="1024"
   height="1024"
   viewBox="0 0 270.93332 270.93333"
   version="1.1"
   id="svg5"
   inkscape:version="1.2.1 (9c6d41e410, 2022-07-14)"
   sodipodi:docname="logo_short.svg"
   inkscape:export-filename="Континуум, товарный знак белый.png"
   inkscape:export-xdpi="192"
   inkscape:export-ydpi="192"
   xmlns:inkscape="http://www.inkscape.org/namespaces/inkscape"
   xmlns:sodipodi="http://sodipodi.sourceforge.net/DTD/sodipodi-0.dtd"
   xmlns="http://www.w3.org/2000/svg"
   xmlns:svg="http://www.w3.org/2000/svg">
  <sodipodi:namedview
     id="namedview7"
     pagecolor="#ffffff"
     bordercolor="#000000"
     borderopacity="0.25"
     inkscape:showpageshadow="2"
     inkscape:pageopacity="0.0"
     inkscape:pagecheckerboard="0"
     inkscape:deskcolor="#d1d1d1"
     inkscape:document-units="mm"
     showgrid="true"
     showguides="true"
     inkscape:zoom="0.39063902"
     inkscape:cx="629.7374"
     inkscape:cy="811.49088"
     inkscape:window-width="1858"
     inkscape:window-height="1057"
     inkscape:window-x="-8"
     inkscape:window-y="-8"
     inkscape:window-maximized="1"
     inkscape:current-layer="layer1">
    <sodipodi:guide
       position="529.16667,135.46667"
       orientation="1,0"
       id="guide11"
       inkscape:locked="false" />
    <sodipodi:guide
       position="423.33331,135.46667"
       orientation="0,-1"
       id="guide63"
       inkscape:locked="false" />
    <sodipodi:guide
       position="423.33331,169.33333"
       orientation="0,-1"
       id="guide65"
       inkscape:locked="false" />
  </sodipodi:namedview>
  <defs
     id="defs2">
    <rect
       x="0"
       y="0"
       width="3200"
       height="1024"
       id="rect121" />
    <pattern
       id="EMFhbasepattern"
       patternUnits="userSpaceOnUse"
       width="6"
       height="6"
       x="0"
       y="0" />
  </defs>
  <g
     inkscape:label="Слой 1"
     inkscape:groupmode="layer"
     id="layer1">
    <path
       style="fill:#ffffff;fill-opacity:1;stroke-width:0.503197"
       d="m 120.90485,260.77831 c -0.69624,-1.0609 -0.95348,-2.63102 -1.08562,-6.62754 -0.17301,-5.23724 -0.17301,-5.23724 -1.13998,-3.64756 -2.0638,3.39358 -2.42789,-0.9922 -1.43868,-17.32996 0.26827,-4.42814 0.71506,-16.54259 0.99322,-26.92101 0.68558,-25.58252 2.07616,-45.41222 3.39391,-48.39085 0.54166,-1.22489 2.73418,-4.25453 4.87194,-6.7325 2.13776,-2.47799 5.94558,-7.3359 8.46187,-10.79537 4.88468,-6.71582 6.47051,-8.66825 6.78536,-8.35346 0.33424,0.33424 -10.12185,16.87133 -14.03119,22.19136 -3.69774,5.03197 -3.69774,5.03197 -4.03083,38.49452 -0.3101,31.13751 -0.17682,50.00753 0.37359,52.70981 0.27663,1.35969 1.21756,1.51719 1.21756,0.20381 0,-1.63028 3.77777,-6.74501 8.04835,-10.89672 6.50093,-6.32018 11.57631,-12.60038 11.57631,-14.32473 0,-5.33191 1.61434,-49.88673 2.01532,-55.61957 0.27093,-3.87461 0.7297,-12.25283 1.01926,-18.61825 0.50782,-11.1598 1.36167,-16.85709 2.52618,-16.85709 0.64928,0 0.59927,2.33596 -0.25895,12.07671 -0.92419,10.491 -2.08053,31.94558 -2.80662,52.08082 -0.30952,8.5795 -0.73559,17.9767 -0.94682,20.88265 -0.3253,4.47578 -0.26579,5.37042 0.38976,5.8516 1.07192,0.78696 0.32169,3.11652 -3.23821,10.05518 -2.44158,4.75876 -2.7703,5.73476 -2.50146,7.42407 0.41047,2.57866 -0.674,4.22128 -10.1768,15.4149 -7.98352,9.4041 -8.60409,9.883 -10.01747,7.72918 z m 9.70795,-13.57454 c 1.5113,-0.71718 1.83793,-1.23966 2.75243,-4.40296 1.95733,-6.77048 2.13586,-7.11404 3.68309,-7.0883 1.25026,0.0207 4.98069,-5.327 4.2356,-6.07208 -0.44927,-0.44932 -12.2406,11.69781 -14.00496,14.4277 -2.51097,3.88483 -1.08048,5.2303 3.33384,3.13564 z m -7.86432,-10.50816 c -0.34507,-3.3211 -0.78654,-10.90678 -0.98123,-16.85707 -0.35363,-10.81872 -0.35363,-10.81872 -0.43519,5.14758 -0.0722,14.14808 0.019,16.21099 0.79586,18.11507 1.24455,3.04755 1.41757,1.26216 0.62056,-6.40558 z m 26.0349,-3.61292 c -0.82875,-4.2993 2.19252,-34.17449 4.94286,-48.87669 4.15783,-22.22552 4.70235,-26.81996 5.2598,-44.37568 0.28575,-8.99462 0.8527,-21.56195 1.25995,-27.9274 0.40744,-6.36542 0.74434,-13.427559 0.7489,-15.693656 0.019,-6.763415 0.52151,-8.445314 7.80214,-25.820037 2.14556,-5.120016 4.61908,-11.46029 5.49688,-14.089484 1.18315,-3.543865 1.80923,-4.76378 2.42048,-4.716249 1.69933,0.132136 8.35274,5.071078 12.92372,9.593704 2.60337,2.575808 5.12309,4.683281 5.59936,4.683281 1.14683,0 1.7826,0.878642 2.18491,3.019178 0.18252,0.968647 1.14474,2.946171 2.13909,4.394501 1.80808,2.633302 1.80808,2.633302 4.52021,0.316273 1.49172,-1.274386 2.71213,-2.52687 2.71213,-2.783291 0,-0.788085 -3.47833,-5.953066 -4.00916,-5.953066 -0.27454,0 -0.98523,-0.962353 -1.57917,-2.138578 -1.27042,-2.515804 -12.48035,-14.089181 -13.33059,-13.762908 -0.32074,0.123011 -0.84852,-0.04164 -1.17307,-0.365914 -0.32454,-0.324314 -1.41966,-0.589671 -2.43378,-0.589671 -1.72709,0 -2.00505,-0.235564 -4.38865,-3.718057 -2.26514,-3.309403 -5.51057,-6.581085 -5.99291,-6.041398 -0.097,0.109322 0.0475,2.856489 0.32473,6.104881 0.60897,7.161536 0.62646,7.123967 -5.43281,11.578528 -4.27989,3.146372 -4.27989,3.146372 -3.9814,6.694305 0.33804,4.016191 -0.43899,5.045165 -7.94549,10.521874 -1.86817,1.363003 -3.39658,2.737299 -3.39658,3.054008 0,0.31671 0.57342,3.680108 1.27422,7.474215 1.82462,9.877237 1.5786,10.205925 -10.56827,14.117642 -4.02132,1.295 -7.34717,2.397719 -7.39071,2.450479 -0.0437,0.0527 -0.21465,5.07758 -0.38006,11.16626 -0.33804,12.44449 -0.40439,12.68378 -3.98501,14.3668 -1.2282,0.57741 -2.08567,1.29325 -1.95638,1.6333 0.12738,0.33295 0.84928,3.27041 1.60579,6.5277 1.63241,7.02853 1.46187,7.58126 -3.02849,9.81748 -1.51168,0.75288 -5.56039,3.14261 -8.99708,5.31051 -7.01521,4.42526 -6.27069,2.75566 -7.10457,15.93462 -0.69434,10.97532 -2.2642,13.2452 -11.14073,16.10967 -4.435038,1.43116 -4.435038,1.43116 -4.324195,3.10207 0.06084,0.91899 0.365609,5.03028 0.676843,9.13617 0.777419,10.25335 -1.082569,15.43015 -5.544032,15.43015 -0.746619,0 -3.009862,0.56209 -5.029745,1.24908 -2.019884,0.68698 -5.399538,1.72588 -7.510301,2.30865 -2.110763,0.58279 -9.004679,3.20449 -15.319666,5.82604 -6.314798,2.62155 -11.862633,4.69176 -12.328248,4.60045 -1.483542,-0.29086 -1.110327,-12.50096 0.781222,-25.55773 0.862025,-5.95029 1.832801,-12.79063 2.157343,-15.20074 0.710116,-5.27436 0.453257,-5.04448 7.118264,-6.36969 6.140073,-1.22082 17.029077,-4.9204 17.013487,-5.78032 0,-0.31714 -0.571895,-2.48973 -1.258054,-4.82796 -2.290431,-7.80577 -2.666688,-7.22186 7.558401,-11.72584 13.875291,-6.11165 14.461251,-6.42617 14.188426,-7.61599 -0.133087,-0.58492 -0.707834,-2.80377 -1.274595,-4.9308 -2.261722,-8.48502 -2.053916,-12.34261 0.729318,-13.54081 8.733372,-3.7599 14.284252,-6.70735 14.284252,-7.58468 0,-0.51063 -0.3466,-3.23626 -0.7702,-6.05696 -0.91792,-6.11154 -0.92857,-6.0719 1.8501,-6.90288 2.82069,-0.8435 6.11213,-2.51968 11.53543,-5.87445 4.97518,-3.077519 4.99667,-3.127279 4.99667,-11.623488 0,-8.043999 0.0837,-8.175318 7.80537,-12.250657 6.67394,-3.522457 6.67394,-3.522457 6.99335,-6.405125 0.75746,-6.837792 0.94416,-7.71016 1.91513,-8.944657 0.56277,-0.715325 2.86308,-2.164359 5.11188,-3.220083 5.62597,-2.641077 5.8161,-2.829415 6.12581,-6.065392 0.14639,-1.522175 0.48767,-3.876221 0.75974,-5.231201 0.62494,-3.110742 0.86639,-3.036726 -3.55761,-1.090916 -3.76789,1.657278 -3.76789,1.657278 -8.29666,9.944713 -5.77218,10.56275 -10.44373,18.557564 -10.69622,18.305097 -0.10837,-0.108181 0.18632,-0.953703 0.6527,-1.878887 1.20596,-2.388192 0.69509,-1.771067 -7.11484,8.596653 -3.866,5.132109 -8.04018,11.310967 -9.34843,13.837893 -2.36344,4.565501 -2.36344,4.565501 -2.1081,-1.221265 0.14069,-3.182723 0.81126,-9.15849 1.49096,-13.279516 0.67969,-4.121026 1.17326,-7.551747 1.09683,-7.623843 -0.076,-0.07206 -2.96956,-1.774622 -6.42906,-3.783402 -9.50604,-5.519754 -10.56713,-6.3186 -10.56713,-7.955135 0,-1.81299 4.83715,-11.407151 8.02478,-15.916544 1.36947,-1.937312 3.95915,-5.673545 5.75507,-8.302739 6.84943,-10.027607 10.29715,-11.581533 9.6646,-4.355982 -0.39394,4.498442 -0.55516,18.858626 -0.2156,19.19815 0.74491,0.744965 20.24846,-7.333237 22.23583,-9.209918 3.1207,-2.946798 6.38153,-8.314281 12.40297,-20.415538 3.91656,-7.871042 6.59865,-12.6977545 7.10799,-12.7915625 0.60422,-0.111222 2.46364,2.9144965 7.11256,11.5735105 8.3805,15.60993 9.15051,17.190455 10.43575,21.421829 1.57518,5.186141 12.7507,14.71199 12.94064,11.030418 0.29412,-5.702463 1.32878,-15.292307 1.73393,-16.07351 1.53374,-2.955848 5.32805,0.811527 8.50485,8.444363 2.84293,6.831081 4.23768,9.513339 6.89733,13.264154 3.34753,4.721002 2.49634,5.988905 -9.63893,14.357865 -6.98118,4.814486 -8.66778,5.627478 -8.16851,3.937726 0.154,-0.52172 -0.30667,-1.545009 -1.13067,-2.510937 -1.76151,-2.06479 -2.71726,13.686193 -2.52638,41.634446 0.078,11.52885 -0.0855,18.73001 -0.48672,21.43801 -0.33272,2.24274 -0.79453,6.54507 -1.02629,9.56073 -0.52303,6.81259 -1.38601,9.13429 -6.64352,17.8759 -2.22579,3.70071 -9.07484,16.80507 -15.22042,29.12078 -10.12357,20.28816 -11.73297,23.19606 -17.12756,30.94658 -7.13671,10.25338 -6.65912,9.71004 -6.9964,7.96059 z M 64.200575,211.99447 c 7.117123,-3.30712 10.307603,-4.55371 14.691305,-5.74052 12.98931,-3.51655 13.159091,-3.69481 13.531925,-14.217 0.163508,-4.6357 0.13689,-8.42855 -0.05894,-8.42855 -1.344941,0 -5.179564,1.31454 -5.638524,1.93292 -0.733311,0.98774 -2.574667,-2.12399 -4.493974,-7.59388 -0.752513,-2.14487 -1.544763,-3.89976 -1.760554,-3.89976 -0.704031,0 -17.831402,6.6048 -18.294355,7.05484 -0.247733,0.24079 -0.630644,3.56379 -0.850998,7.3844 -0.361046,6.26067 -2.087378,21.82885 -2.737223,24.68427 -0.347928,1.52872 -0.09886,1.47647 5.611146,-1.17672 z m 108.356935,-23.4799 c 2.96442,-6.16415 2.96442,-6.16415 3.27109,-21.27165 0.30667,-15.10749 0.30667,-15.10749 -3.23136,-19.37219 -1.94592,-2.34559 -3.79412,-4.35007 -4.10707,-4.45441 -0.42055,-0.14012 -0.48482,4.78916 -0.24602,18.869 0.33538,19.76997 0.77951,32.39341 1.14018,32.39341 0.11407,0 1.54286,-2.77388 3.17318,-6.16416 z m -79.9894,-14.72698 c 0,-2.90128 -0.140692,-5.27508 -0.314466,-5.27508 -0.173013,0 -1.644768,0.59703 -3.270713,1.32671 -3.307407,1.48428 -3.243715,1.30355 -2.424848,6.87966 0.773426,5.26799 0.598512,5.08604 3.483652,3.62408 2.526375,-1.28027 2.526375,-1.28027 2.526375,-6.55537 z m 13.66672,0.82809 c 0.62,-0.60855 1.04759,-2.8281 1.66055,-8.61914 0.45402,-4.28975 0.94549,-8.42226 1.09189,-9.18334 0.30115,-1.56484 -0.74947,-1.92667 -1.82634,-0.62899 -1.13523,1.36791 -1.78888,0.80069 -3.77758,-3.27796 -1.08124,-2.21801 -2.11001,-3.97292 -2.28587,-3.89978 -2.550713,1.06099 -18.604641,10.25557 -18.80123,10.76815 -0.249633,0.6503 1.967029,7.51425 2.700149,8.36124 0.180619,0.20797 1.717586,-0.0915 3.416919,-0.66525 3.206261,-1.08278 5.997289,-1.14799 5.805453,-0.13575 -0.06084,0.32097 0.33538,2.92457 0.880467,5.78576 0.545277,2.86118 0.99131,5.24316 0.99131,5.29327 0,0.39377 9.495582,-3.16163 10.144282,-3.79828 z m 77.11091,-46.61046 c 0.0266,-22.14065 -0.10076,-38.444212 -0.28461,-36.230136 -0.51638,6.225817 -1.36129,22.716516 -1.95924,38.242906 -0.29849,7.74923 -1.0934,21.22201 -1.76644,29.93951 -0.67323,8.71749 -1.22079,16.30318 -1.2168,16.85707 0,0.55389 1.17041,-1.14408 2.59235,-3.77329 2.5855,-4.78036 2.5855,-4.78036 2.63474,-45.03606 z m -74.77903,24.53082 c 0.89036,-1.26874 1.93585,-8.17695 1.23733,-8.17695 -2.06665,0 -3.75458,2.30697 -3.46312,4.73317 0.16921,1.40975 0.30991,3.07266 0.31238,3.69537 0,1.52273 0.73559,1.42679 1.91341,-0.25159 z m 12.56001,-9.40647 c 7.39033,-4.68062 6.66463,-3.56909 6.08589,-9.32177 -0.5679,-5.64529 -0.45117,-5.46684 -2.82354,-4.31543 -3.94965,1.9168 -7.16428,1.91142 -7.16428,-0.0114 0,-0.98491 -2.4237,-5.76205 -2.90187,-5.7195 -0.20286,0.019 -3.0861,1.55721 -6.40719,3.42034 -7.00743,3.93111 -7.01503,3.95197 -4.45367,12.30138 1.67518,5.46139 2.92525,5.9104 6.8557,2.46268 1.30711,-1.14647 1.91303,-0.23394 2.24005,3.3734 0.27206,3.00051 0.31047,3.06917 1.34133,2.40251 0.58368,-0.37745 3.83614,-2.44369 7.22758,-4.59162 z m 1.92881,-17.76613 c 2.83362,-1.3838 2.83362,-1.3838 2.55794,-4.07855 -0.34641,-3.38574 -0.41029,-3.43892 -2.82354,-2.35076 -3.29087,1.48404 -4.05555,2.48641 -4.05555,5.31672 0,2.98716 0.3158,3.06848 4.32115,1.11259 z m 7.55441,-4.03328 c 0.99588,-0.66497 1.71055,-2.53132 1.71873,-4.48799 0,-1.05603 0.45554,-5.07285 1.00291,-8.92627 1.00024,-7.04263 0.98427,-8.021719 -0.11408,-6.92394 -0.81411,0.81406 -1.40065,0.74732 -1.40065,-0.15932 0,-1.310839 -1.00024,-0.863019 -8.00747,3.58491 -8.17232,5.18749 -7.5892,4.39866 -6.76368,9.1505 0.96184,5.53719 0.68426,5.31064 4.44169,3.62477 3.9852,-1.78803 4.24206,-1.71154 5.95033,1.77165 1.29855,2.64762 1.98395,3.15883 3.17165,2.3657 z m 14.31771,-26.246053 c 9.26116,-3.575064 8.88624,-3.023931 7.805,-11.474055 -0.4331,-3.383723 -0.78731,-6.389858 -0.78731,-6.680274 0,-0.806489 -2.78057,0.796984 -3.94166,2.272978 -1.09873,1.396978 -1.06831,1.429014 -1.8079,-1.894573 -0.40458,-1.817933 -0.59242,-1.783045 -5.17709,0.96108 -6.18874,3.704273 -5.57844,2.423328 -6.39959,13.431007 -0.25724,3.447567 -0.25724,3.447567 0.98656,3.135401 1.14645,-0.287753 1.24379,-0.173583 1.24379,1.458598 0,0.973912 0.0798,1.770762 0.17872,1.770762 0.097,0 3.65305,-1.3414 7.90005,-2.980924 z m 5.9106,-20.769948 c 0.77342,-0.773256 0.78616,-2.05673 0.019,-1.800689 -1.04131,0.347148 -2.18567,2.404524 -1.33715,2.404524 0.39356,0 0.98713,-0.271726 1.31928,-0.603835 z m 8.65504,-7.086095 c 2.61516,-1.972675 3.72074,-6.851423 1.38372,-6.106458 -2.19232,0.69886 -2.63607,0.519078 -2.79635,-1.13261 -0.33481,-3.452472 -6.74181,1.396845 -7.50935,5.683583 -0.34051,1.902254 -0.74605,3.988186 -0.90119,4.635408 -0.25876,1.078957 -0.1597,1.149664 1.20026,0.851131 0.874,-0.192007 1.62119,-0.101147 1.82044,0.221533 0.30876,0.499571 2.0195,-0.544707 6.80247,-4.152587 z m -34.46902,1.784129 c 0.55365,-0.141072 3.61047,-1.519894 6.79315,-3.064085 3.18288,-1.544192 6.11574,-2.818331 6.51785,-2.83143 0.40212,-0.01331 1.87387,-1.518772 3.27072,-3.345983 5.483,-7.172088 6.41081,-7.88901 1.66587,-1.287068 -2.66003,3.700908 -2.74008,4.216944 -0.54129,3.493938 1.136,-0.373575 2.08168,-1.699124 4.79362,-6.719762 3.61902,-6.699761 4.00003,-7.694759 2.38682,-6.234812 -0.90119,0.815445 -0.9877,0.825084 -0.70099,0.07795 1.13809,-2.96581 -15.60733,3.466161 -28.46279,10.932695 -0.69186,0.401847 -2.35013,1.246361 -3.68499,1.8767 -1.33487,0.63032 -2.53037,1.313324 -2.6568,1.517803 -0.40002,0.647241 8.01679,6.504275 8.84934,6.157982 0.4198,-0.174534 1.21604,-0.432913 1.76949,-0.573967 z m 21.63751,-16.234831 c 0.17111,-0.276745 0.42417,-0.503184 0.56258,-0.503184 0.13879,0 0.11217,0.226439 -0.0589,0.503184 -0.17111,0.276764 -0.42417,0.503203 -0.56258,0.503203 -0.13879,0 -0.11217,-0.226439 0.0589,-0.503203 z m -32.19683,8.2315 c 3.78823,-2.515272 3.47471,-2.774222 -1.51739,-1.252788 -4.59455,1.400343 -4.88772,1.630565 -3.14485,2.471068 1.63583,0.788941 1.64135,0.787496 4.66224,-1.21828 z m -1.3824,-3.234646 c 3.65724,-1.175198 3.65724,-1.175198 4.6301,-4.46981 3.56902,-12.085895 5.02766,-17.319948 4.87042,-17.4772 -0.0989,-0.09924 -3.49981,4.935957 -7.5565,11.189458 -6.64922,10.249558 -7.95956,12.826335 -6.17942,12.151811 0.31807,-0.120539 2.22388,-0.747893 4.2354,-1.394259 z m 54.49921,-4.268677 c 2.05524,-1.536796 3.89052,-3.178483 4.07874,-3.648167 0.40363,-1.007926 0.53501,-10.163108 0.1464,-10.163108 -0.55194,0 -7.5681,4.126558 -8.39819,4.939284 -0.48672,0.476604 -1.20234,2.609136 -1.63526,4.873044 -0.95556,4.997082 -0.96469,4.780359 0.20267,4.780359 0.53482,0 1.11623,0.452877 1.2919,1.006405 0.40478,1.275869 -0.019,1.450042 4.3145,-1.787817 z m -3.00055,-15.133573 c 6.31233,-3.316989 7.3333,-5.984037 5.89862,-15.408987 -0.78636,-5.16711 -0.71925,-5.23527 -4.95294,5.03197 -2.02559,4.912457 -3.98843,9.667663 -4.36184,10.567123 -0.84453,2.034352 -0.81373,2.03264 3.41616,-0.190125 z"
       id="path244" />
  </g>
</svg>
