<?xml version="1.0" encoding="UTF-8" standalone="no"?>
<!-- Created with Inkscape (http://www.inkscape.org/) -->

<svg
   width="1024"
   height="1024"
   viewBox="0 0 270.93333 270.93333"
   version="1.1"
   id="svg5"
   inkscape:version="1.2.1 (9c6d41e410, 2022-07-14)"
   sodipodi:docname="profile.svg"
   inkscape:export-filename="Континуум, товарный знак белый.png"
   inkscape:export-xdpi="192"
   inkscape:export-ydpi="192"
   xml:space="preserve"
   xmlns:inkscape="http://www.inkscape.org/namespaces/inkscape"
   xmlns:sodipodi="http://sodipodi.sourceforge.net/DTD/sodipodi-0.dtd"
   xmlns="http://www.w3.org/2000/svg"
   xmlns:svg="http://www.w3.org/2000/svg"><sodipodi:namedview
     id="namedview7"
     pagecolor="#ffffff"
     bordercolor="#000000"
     borderopacity="0.25"
     inkscape:showpageshadow="2"
     inkscape:pageopacity="0.0"
     inkscape:pagecheckerboard="0"
     inkscape:deskcolor="#d1d1d1"
     inkscape:document-units="mm"
     showgrid="true"
     showguides="true"
     inkscape:zoom="0.19531951"
     inkscape:cx="1272.2743"
     inkscape:cy="1105.8803"
     inkscape:window-width="1920"
     inkscape:window-height="1057"
     inkscape:window-x="-8"
     inkscape:window-y="-8"
     inkscape:window-maximized="1"
     inkscape:current-layer="layer1"><sodipodi:guide
       position="529.16669,135.46667"
       orientation="1,0"
       id="guide11"
       inkscape:locked="false" /><sodipodi:guide
       position="423.33332,135.46667"
       orientation="0,-1"
       id="guide63"
       inkscape:locked="false" /><sodipodi:guide
       position="423.33332,169.33333"
       orientation="0,-1"
       id="guide65"
       inkscape:locked="false" /><sodipodi:guide
       position="2645.8333,0"
       orientation="1,0"
       id="guide5913"
       inkscape:locked="false" /></sodipodi:namedview><defs
     id="defs2"><rect
       x="0.47219524"
       y="0.47219524"
       width="9794.7354"
       height="1074.2539"
       id="rect1264" /><rect
       x="0"
       y="0"
       width="5628.9731"
       height="361.5528"
       id="rect121" /><pattern
       id="EMFhbasepattern"
       patternUnits="userSpaceOnUse"
       width="6"
       height="6"
       x="0"
       y="0" /></defs><g
     inkscape:label="Слой 1"
     inkscape:groupmode="layer"
     id="layer1"><path
       style="fill:#ffffff;stroke-width:0.440108;fill-opacity:1"
       d="M 125.15364,231.82578 C 106.63866,229.9829 90.326438,223.71769 75.421374,212.72457 70.052012,208.76443 60.18363,198.89604 56.223485,193.52668 46.239247,179.9895 40.33565,165.78167 37.753385,149.07572 36.681971,142.14424 36.680058,128.74236 37.750058,121.78901 40.941644,101.0374 49.727767,83.132659 63.945214,68.407302 79.188946,52.619039 97.74744,43.098806 120.00015,39.651971 c 6.79812,-1.052983 20.26651,-1.045964 27.15948,0.01497 21.59445,3.321215 39.34283,12.268555 54.59858,27.52428 15.23827,15.238284 24.17776,32.973639 27.52037,54.598589 1.07333,6.9439 1.07367,20.33898 8.8e-4,27.28671 -3.2022,20.73466 -12.01731,38.70071 -26.19193,53.3817 -7.89931,8.18148 -15.68092,13.95669 -25.65774,19.04219 -9.75038,4.97008 -19.38679,8.05905 -30.04991,9.6326 -5.81066,0.85747 -17.0539,1.20831 -22.22546,0.69357 z m 22.44553,-12.34106 c 11.13942,-1.15422 21.79178,-4.74055 31.87708,-10.73209 18.16304,-10.7904 32.0491,-31.9218 35.70747,-54.33854 0.74874,-4.58781 0.56568,-5.96352 -0.2611,-1.96243 -1.95016,9.4375 -7.90768,23.07122 -13.51898,30.93803 -6.26917,8.78912 -20.27784,21.00651 -29.90919,26.08468 -12.10065,6.38016 -24.23181,8.96191 -40.39936,8.59779 -9.24594,-0.20824 -9.3554,0.0838 -0.4401,1.17444 5.96047,0.72911 11.45977,0.80637 16.94418,0.23812 z m -5.26976,-8.81708 c 19.33219,-2.402 36.94774,-11.85864 48.99038,-26.29977 C 214.23402,156.8899 215.30672,118.201 193.94218,89.785801 169.96452,57.8951 124.73344,50.199837 91.598874,72.373884 59.88964,93.594077 48.792702,134.52378 65.493459,168.66055 c 11.279013,23.05459 33.172229,38.69444 58.779951,41.99062 4.19653,0.54018 13.77078,0.54891 18.056,0.0166 z m -16.51562,-14.07448 c -13.56731,-1.52294 -24.13746,-6.61383 -33.684308,-16.22331 -4.015352,-4.0417 -8.346053,-9.54628 -8.346053,-10.60834 0,-0.25665 13.31595,-7.98515 15.021303,-8.71828 0.173309,-0.0745 1.766138,1.32956 3.539598,3.12015 3.85622,3.89346 7.9153,6.37397 13.56703,8.29088 3.93143,1.33343 4.6014,1.42473 11.22276,1.52951 5.95905,0.0943 6.60189,0.0452 4.18102,-0.31876 -9.39451,-1.41274 -15.50646,-3.72404 -20.45437,-7.735 -2.3358,-1.89348 -6.83234,-6.90656 -6.83234,-7.6172 0,-0.14788 1.68341,-1.20628 3.74092,-2.35197 2.0575,-1.14567 3.74727,-2.12376 3.75503,-2.17352 0.008,-0.0497 0.47511,-4.34851 1.03853,-9.55278 l 1.02441,-9.46233 -1.25695,-1.60166 c -0.80173,-1.02161 -1.54513,-2.82297 -2.05269,-4.97397 -0.64873,-2.74922 -1.02379,-3.5219 -2.02996,-4.18194 -1.73129,-1.1357 -2.76945,-2.84841 -3.84483,-6.34293 -1.39201,-4.52353 -0.71248,-9.52138 1.38487,-10.18535 0.54621,-0.17291 0.63507,-1.01717 0.5107,-4.85266 -0.33784,-10.419199 3.2517,-17.29364 10.09043,-19.324538 1.35016,-0.400946 3.08418,-1.427964 4.4917,-2.660328 3.46142,-3.030652 6.09193,-3.878122 12.195,-3.928873 5.52261,-0.04591 7.74583,0.474818 12.36066,2.895151 4.80518,2.520171 9.42959,8.062294 11.42211,13.688851 0.73735,2.082164 1.01557,4.057487 1.16059,8.240047 0.15303,4.41557 0.36515,5.82686 1.07449,7.1506 1.99016,3.71396 0.70164,10.94768 -2.5564,14.35163 -1.6105,1.68263 -1.93969,2.38188 -2.59216,5.50634 l -0.74738,3.57898 -6.87017,6.70203 c -3.7786,3.68612 -6.7334,6.70635 -6.56625,6.71166 0.16718,0.005 2.82596,-1.07803 5.90842,-2.40737 3.08245,-1.32933 5.64251,-2.36909 5.68901,-2.31057 0.0464,0.0585 0.35843,2.84819 0.69322,6.19928 l 0.60867,6.09286 8.13595,4.34153 c 4.47477,2.38785 8.19551,4.52023 8.26831,4.73862 0.21742,0.65223 -4.02477,6.69206 -6.91793,9.84943 -6.46363,7.05393 -14.66219,12.01363 -24.22996,14.65787 -4.30738,1.19043 -3.0999,1.4175 2.19576,0.41294 6.79796,-1.28955 13.24733,-4.10045 20.00159,-8.71748 4.20678,-2.87565 10.1085,-8.4379 12.51597,-11.79606 l 1.47271,-2.05425 4.45637,2.36582 c 2.45102,1.30121 4.51757,2.5494 4.59235,2.77376 0.22846,0.68534 -5.01439,6.87627 -8.80721,10.39989 -8.80064,8.17597 -20.05985,13.87177 -31.29353,15.83076 -4.87158,0.84953 -12.87162,1.1609 -17.23699,0.67088 z m 20.40808,-67.26957 c 1.0085,-2.86315 2.11546,-5.23989 2.59778,-5.57772 3.41525,-2.39214 5.4036,-4.28147 5.21415,-4.95451 -0.1151,-0.40882 -0.45089,-2.87606 -0.74628,-5.48277 -0.2954,-2.60672 -0.61877,-4.65783 -0.71861,-4.55799 -0.0998,0.0998 -0.38225,2.2326 -0.6276,4.7395 l -0.44609,4.55798 -2.57145,2.64065 -2.57146,2.64065 -0.94514,4.8412 c -0.51983,2.66264 -1.05609,5.23729 -1.19168,5.72141 -0.67687,2.41664 0.4487,-0.14622 2.00638,-4.5684 z M 82.683172,165.0508 c 0.242058,-0.25874 3.664841,-3.24431 7.606189,-6.63461 l 7.166069,-6.16419 4.40802,-0.53999 c 2.42439,-0.29698 4.49201,-0.45595 4.59471,-0.35325 0.10263,0.10263 -4.80858,3.03319 -10.913929,6.51223 -6.105351,3.47903 -11.595759,6.62357 -12.200905,6.98787 -0.605145,0.36429 -0.902212,0.45067 -0.660154,0.19194 z M 162.42218,99.419211 c -0.79538,-7.557268 -3.39193,-13.295739 -8.21342,-18.152041 -1.81983,-1.832969 -4.39805,-3.966499 -5.72939,-4.741145 -1.91958,-1.116964 -2.14732,-1.353666 -1.10027,-1.143612 2.28891,0.459182 7.46407,3.175691 9.5531,5.014532 4.3138,3.797164 6.57496,9.122379 6.54991,15.425658 -0.008,2.057512 -0.18405,4.335077 -0.39085,5.061247 -0.33717,1.18405 -0.40622,1.03288 -0.66908,-1.464639 z M 51.036166,124.42966 C 53.588124,107.19936 60.303727,93.061971 71.758463,80.806009 77.283952,74.894005 83.676556,69.102804 87.418162,66.619494 98.4134,59.321967 112.00883,54.875593 127.35417,53.558445 c 3.2678,-0.280483 6.04049,-0.61481 6.16152,-0.742942 0.49867,-0.527947 -17.19168,0.295221 -20.90515,0.972741 -13.469834,2.457593 -24.195185,7.479105 -35.758075,16.741659 -9.824834,7.870261 -18.497613,20.987882 -22.983791,34.763127 -2.644826,8.12116 -3.530488,12.97763 -3.730695,20.45695 -0.09398,3.50987 -0.08434,5.68841 0.02146,4.84119 0.105792,-0.84721 0.500285,-3.61988 0.876712,-6.16151 z m 32.749891,100.72646 c -7.353018,-1.97343 -14.21382,-5.72842 -19.071603,-10.43811 -3.103326,-3.00871 -7.170793,-8.3003 -9.281916,-12.07534 -1.782702,-3.18779 -4.575238,-9.8937 -3.432946,-8.24382 2.512669,3.62925 8.074336,10.08588 12.023369,13.95816 6.882476,6.7487 12.729284,11.17312 20.640691,15.61931 4.126202,2.31892 3.999816,2.48883 -0.877595,1.1798 z M 233.05146,118.59822 c -1.87767,-12.10576 -6.98479,-26.269776 -13.11175,-36.363931 -5.28792,-8.711859 -13.8713,-18.75212 -20.84787,-24.386462 -4.73556,-3.824494 -12.1373,-8.603332 -18.4885,-11.936856 -3.02358,-1.586969 -5.37249,-2.888997 -5.21982,-2.893388 0.55182,-0.01663 8.60984,3.023166 12.26551,4.625904 23.20928,10.17548 39.13301,30.26411 44.71022,56.404273 0.98763,4.62893 2.06263,18.18135 1.4422,18.18135 -0.1028,0 -0.44025,-1.63391 -0.74999,-3.63089 z"
       id="path446" /></g></svg>
